<?xml version="1.0" encoding="UTF-8" standalone="no"?>
<!DOCTYPE svg PUBLIC "-//W3C//DTD SVG 1.1//EN" "http://www.w3.org/Graphics/SVG/1.1/DTD/svg11.dtd">
<svg version="1.1" xmlns="http://www.w3.org/2000/svg" xmlns:xlink="http://www.w3.org/1999/xlink" preserveAspectRatio="xMidYMid meet" viewBox="0 0 750 590" width="750" height="590"><defs><path d="M95.53 534.93C103.51 537.73 112.37 536.17 118.9 530.81C127.09 523.94 129.66 512.62 131.75 502.14C132.16 500.08 134.22 489.74 137.92 471.14C130.16 476.48 125.85 479.45 124.99 480.04C115.69 486.45 106.18 493.06 99.74 502.33C93.3 511.61 90.49 524.27 95.66 534.31" id="c2JVTNTPQu"></path><path d="M95.37 538.77C96.38 528.12 99.63 517.73 106.24 509.2C109.75 504.68 114.02 500.81 118.86 497.76C120.12 496.97 121.29 498.97 120.03 499.76C111.66 505.05 105.18 512.87 101.53 522.08C97.51 532.32 96.86 543.48 97.55 554.37C97.97 560.94 98.86 567.48 99.76 574.01C99.9 574.62 99.55 575.24 98.95 575.43C98.33 575.6 97.7 575.24 97.53 574.62C95.9 562.77 94.22 550.75 95.37 538.77Z" id="b3SqPwA8e"></path><path d="M109.24 555.6C112.66 560.8 118.55 563.84 124.77 563.61C132.63 563.24 139.18 557.75 145.08 552.55C146.24 551.52 152.06 546.39 162.52 537.14C155.6 536.81 151.75 536.63 150.98 536.59C142.67 536.19 134.16 535.82 126.25 538.38C118.34 540.95 111.05 547.11 109.6 555.29" id="aqRCEXd0U"></path><path d="M126.09 547.24C130.61 545.88 135.34 545.39 140.04 545.8C141.53 545.93 141.16 548.21 139.68 548.08C131.8 547.43 123.94 549.51 117.41 553.97C111.14 558.25 106.25 564.19 102.11 570.49C99.58 574.35 97.31 578.37 95.04 582.38C94.31 583.67 92.19 582.74 92.93 581.44C100.76 567.58 109.85 552.17 126.09 547.24Z" id="f3KpQHXpez"></path><path d="M880.7 551.44C876.06 555.59 869.6 557.03 863.64 555.22C856.14 552.85 851.2 545.87 846.84 539.33C845.97 538.04 841.66 531.59 833.91 519.98C840.69 521.43 844.46 522.24 845.21 522.4C853.34 524.14 861.67 525.95 868.66 530.45C875.65 534.95 881.13 542.77 880.43 551.05" id="azLz8rWty"></path><path d="M866.55 539.05C862.53 536.58 858.08 534.9 853.43 534.1C851.96 533.84 851.74 536.14 853.2 536.4C860.98 537.78 868.05 541.8 873.22 547.78C878.19 553.52 881.4 560.51 883.79 567.66C885.25 572.04 886.42 576.5 887.59 580.97C887.96 582.39 890.25 582.04 889.87 580.6C885.84 565.19 880.99 547.97 866.55 539.05Z" id="b1g2lIXs9e"></path><path d="M466.84 354.96C462.44 354.95 458.88 351.39 458.88 347C458.88 338.08 458.88 266.78 458.88 257.86C458.88 253.47 462.44 249.91 466.84 249.9C493.26 249.9 704.64 249.9 731.06 249.9C735.45 249.91 739.01 253.47 739.02 257.86C739.02 266.78 739.02 338.08 739.02 347C739.01 351.39 735.45 354.95 731.06 354.96C678.22 354.96 493.26 354.96 466.84 354.96Z" id="afnkeJrcI"></path><path d="M570.3 273.78C570.3 273.78 570.3 273.78 570.3 273.78C570.3 278.55 570.3 281.21 570.3 281.74C570.3 281.74 570.3 281.74 570.3 281.74C528.28 281.74 504.93 281.74 500.26 281.74C500.26 281.74 500.26 281.74 500.26 281.74C500.26 276.96 500.26 274.31 500.26 273.78C500.26 273.78 500.26 273.78 500.26 273.78C542.28 273.78 565.63 273.78 570.3 273.78Z" id="dUniOVI"></path><path d="M662.62 273.78C659.98 273.78 657.84 275.92 657.84 278.55C657.84 281.19 659.98 283.33 662.62 283.33C665.25 283.33 667.39 281.19 667.39 278.55C667.39 275.92 665.25 273.78 662.62 273.78Z" id="h3gyU5uxBo"></path><path d="M678.53 273.78C675.9 273.78 673.76 275.92 673.76 278.55C673.76 281.19 675.9 283.33 678.53 283.33C681.17 283.33 683.31 281.19 683.31 278.55C683.31 275.92 681.17 273.78 678.53 273.78Z" id="e4l88xDi"></path><path d="M694.45 273.78C691.81 273.78 689.68 275.92 689.68 278.55C689.68 281.19 691.81 283.33 694.45 283.33C697.09 283.33 699.23 281.19 699.23 278.55C699.23 275.92 697.09 273.78 694.45 273.78Z" id="btLqhximF"></path><path d="M466.84 467.97C462.44 467.96 458.88 464.4 458.88 460.01C458.88 451.09 458.88 379.79 458.88 370.87C458.88 366.48 462.44 362.92 466.84 362.91C493.26 362.91 704.64 362.91 731.06 362.91C735.45 362.92 739.01 366.48 739.02 370.87C739.02 379.79 739.02 451.09 739.02 460.01C739.01 464.4 735.45 467.96 731.06 467.97C678.22 467.97 493.26 467.97 466.84 467.97Z" id="g14rsguQCf"></path><path d="M570.3 386.79C570.3 386.79 570.3 386.79 570.3 386.79C570.3 391.57 570.3 394.22 570.3 394.75C570.3 394.75 570.3 394.75 570.3 394.75C528.28 394.75 504.93 394.75 500.26 394.75C500.26 394.75 500.26 394.75 500.26 394.75C500.26 389.97 500.26 387.32 500.26 386.79C500.26 386.79 500.26 386.79 500.26 386.79C542.28 386.79 565.63 386.79 570.3 386.79Z" id="avdDnPF32"></path><path d="M662.62 386.79C659.98 386.79 657.84 388.93 657.84 391.57C657.84 394.2 659.98 396.34 662.62 396.34C665.25 396.34 667.39 394.2 667.39 391.57C667.39 388.93 665.25 386.79 662.62 386.79Z" id="a8gXA9k5g2"></path><path d="M678.53 386.79C675.9 386.79 673.76 388.93 673.76 391.57C673.76 394.2 675.9 396.34 678.53 396.34C681.17 396.34 683.31 394.2 683.31 391.57C683.31 388.93 681.17 386.79 678.53 386.79Z" id="b2vgaJZz7k"></path><path d="M694.45 386.79C691.81 386.79 689.68 388.93 689.68 391.57C689.68 394.2 691.81 396.34 694.45 396.34C697.09 396.34 699.23 394.2 699.23 391.57C699.23 388.93 697.09 386.79 694.45 386.79Z" id="bXeOk7Xff"></path><path d="M466.84 580.98C462.44 580.97 458.88 577.41 458.88 573.02C458.88 564.11 458.88 492.8 458.88 483.88C458.88 479.49 462.44 475.93 466.84 475.93C493.26 475.93 704.64 475.93 731.06 475.93C735.45 475.93 739.01 479.49 739.02 483.88C739.02 492.8 739.02 564.11 739.02 573.02C739.01 577.41 735.45 580.97 731.06 580.98C678.22 580.98 493.26 580.98 466.84 580.98Z" id="bxGe2tvRg"></path><path d="M570.3 499.8C570.3 499.8 570.3 499.8 570.3 499.8C570.3 504.58 570.3 507.23 570.3 507.76C570.3 507.76 570.3 507.76 570.3 507.76C528.28 507.76 504.93 507.76 500.26 507.76C500.26 507.76 500.26 507.76 500.26 507.76C500.26 502.98 500.26 500.33 500.26 499.8C500.26 499.8 500.26 499.8 500.26 499.8C542.28 499.8 565.63 499.8 570.3 499.8Z" id="aouQ3ibrg"></path><path d="M662.62 499.8C659.98 499.8 657.84 501.94 657.84 504.58C657.84 507.21 659.98 509.35 662.62 509.35C665.25 509.35 667.39 507.21 667.39 504.58C667.39 501.94 665.25 499.8 662.62 499.8Z" id="asn7ri6Mj"></path><path d="M678.53 499.8C675.9 499.8 673.76 501.94 673.76 504.58C673.76 507.21 675.9 509.35 678.53 509.35C681.17 509.35 683.31 507.21 683.31 504.58C683.31 501.94 681.17 499.8 678.53 499.8Z" id="a2tHM4P0xF"></path><path d="M694.45 499.8C691.81 499.8 689.68 501.94 689.68 504.58C689.68 507.21 691.81 509.35 694.45 509.35C697.09 509.35 699.23 507.21 699.23 504.58C699.23 501.94 697.09 499.8 694.45 499.8Z" id="a1YXWxnz01"></path><path d="M631.16 162.65C631.15 162.64 631.15 162.64 631.15 162.64C629.57 161.47 627.33 161.8 626.15 163.38C626.15 163.38 626.15 163.38 626.15 163.38C622.19 168.72 602.36 195.41 566.68 243.46L560.13 243.46C560.13 242.53 560.13 242.02 560.13 241.92C560.13 241.13 559.49 240.49 558.7 240.49C558.31 240.49 555.19 240.49 554.8 240.49C554.01 240.49 553.37 241.13 553.37 241.92C553.37 242.02 553.37 242.53 553.37 243.46L551.11 243.46C551.11 242.53 551.11 242.02 551.11 241.92C551.11 241.13 550.47 240.49 549.68 240.49C549.29 240.49 546.17 240.49 545.78 240.49C544.99 240.49 544.35 241.13 544.35 241.92C544.35 242.02 544.35 242.53 544.35 243.46L542.09 243.46C542.09 242.53 542.09 242.02 542.09 241.92C542.09 241.13 541.45 240.49 540.66 240.49C540.27 240.49 537.15 240.49 536.76 240.49C535.97 240.49 535.33 241.13 535.33 241.92C535.33 242.02 535.33 242.53 535.33 243.46L533.07 243.46C533.07 242.53 533.07 242.02 533.07 241.92C533.07 241.13 532.43 240.49 531.64 240.49C531.25 240.49 528.13 240.49 527.74 240.49C526.95 240.49 526.31 241.13 526.31 241.92C526.31 242.02 526.31 242.53 526.31 243.46L524.06 243.46C524.06 242.53 524.06 242.02 524.06 241.92C524.06 241.13 523.42 240.49 522.63 240.49C522.24 240.49 519.11 240.49 518.72 240.49C517.93 240.49 517.29 241.13 517.29 241.92C517.29 241.92 517.29 241.92 517.29 241.92C517.29 242.02 517.29 242.53 517.29 243.46L515.03 243.46C515.03 242.53 515.03 242.02 515.03 241.92C515.03 241.13 514.39 240.49 513.6 240.49C513.21 240.49 510.09 240.49 509.7 240.49C508.91 240.49 508.27 241.13 508.27 241.92C508.27 242.02 508.27 242.53 508.27 243.46L506.01 243.46C506.01 242.53 506.01 242.02 506.01 241.92C506.01 241.13 505.37 240.49 504.58 240.49C504.19 240.49 501.07 240.49 500.68 240.49C499.89 240.49 499.25 241.13 499.25 241.92C499.25 242.02 499.25 242.53 499.25 243.46L496.99 243.46C496.99 242.53 496.99 242.02 496.99 241.92C496.99 241.13 496.35 240.49 495.56 240.49C495.17 240.49 492.05 240.49 491.66 240.49C490.87 240.49 490.23 241.13 490.23 241.92C490.23 242.02 490.23 242.53 490.23 243.46L487.97 243.46C487.97 242.53 487.97 242.02 487.97 241.92C487.97 241.13 487.33 240.49 486.54 240.49C486.15 240.49 483.03 240.49 482.64 240.49C481.85 240.49 481.21 241.13 481.21 241.92C481.21 242.02 481.21 242.53 481.21 243.46L478.95 243.46C478.95 242.53 478.95 242.02 478.95 241.92C478.95 241.13 478.31 240.49 477.52 240.49C477.13 240.49 474.01 240.49 473.62 240.49C472.83 240.49 472.19 241.13 472.19 241.92C472.19 242.02 472.19 242.53 472.19 243.46C470.49 243.46 469.55 243.46 469.36 243.46C467.38 243.46 465.78 245.06 465.78 247.03C465.78 247.03 465.78 247.03 465.78 247.03C465.78 247.37 465.78 250.1 465.78 250.44C465.78 252.42 467.38 254.02 469.36 254.02C469.36 254.02 469.36 254.02 469.36 254.02C479.03 254.02 556.41 254.02 566.08 254.02C568.61 254.02 570.79 252.24 571.3 249.77C571.3 249.77 571.31 249.78 571.34 249.8L632.18 167.87C632.19 167.87 632.19 167.87 632.19 167.87C633.37 166.28 633.04 164.04 631.45 162.86C631.45 162.86 631.35 162.79 631.16 162.65Z" id="aZzJvRTgu"></path><path d="M267.6 556.76L297.03 513.35L279.3 504.27L255.59 550.61L255.59 550.61L267.6 556.76Z" id="a2ye5tJePN"></path><path d="M254.53 545.12L278.19 557.23C278.19 557.23 278.19 557.23 278.19 557.23C286.52 561.49 289.81 571.7 285.55 580.03C285.54 580.06 285.45 580.22 285.3 580.52L246.56 560.69L254.53 545.12Z" id="bDZPPQhiI"></path><path d="M407.84 567.43L414.26 515.38L394.35 515.38L394.35 567.43L394.35 567.43L407.84 567.43Z" id="ku5iLuqAO"></path><path d="M390.9 563.03L417.48 563.03C417.48 563.03 417.48 563.03 417.48 563.03C426.84 563.03 434.42 570.61 434.42 579.96C434.42 580 434.42 580.18 434.42 580.51L390.91 580.52L390.9 563.03Z" id="b1mGd788b4"></path><path d="M331.22 142.82C331.22 142.82 322.18 135.89 322.18 152.81C322.08 156.53 321.61 175.16 320.75 208.7L336.69 261.5L345.96 244.37L342.16 207.27C336.32 172.9 332.68 151.41 331.22 142.82Z" id="b1F6cBBIvZ"></path><path d="M427.89 295.69C427.89 295.69 438.37 346.73 425.1 388.61C424.61 399.35 422.17 453.03 417.76 549.66L390.86 547.56L381.43 428.09L372.35 368.7L353.49 422.85L291.3 537.43C274.12 524.02 264.57 516.57 262.66 515.07C262.66 515.07 294.4 428.46 317.85 410.27C318.64 401.34 322.56 356.69 329.61 276.31C382.03 286.65 414.79 293.11 427.89 295.69Z" id="a1BFqddR3v"></path><path d="M369.1 29.2C360.97 44.06 366.43 62.7 381.3 70.82C396.16 78.95 414.8 73.48 422.92 58.62C431.05 43.76 425.58 25.12 410.72 17C395.86 8.87 377.22 14.33 369.1 29.2Z" id="aTZxGNem8"></path><path d="M393.84 50.41C397.52 50.89 400.29 47.13 401.58 43.65C402.86 40.18 403.84 36.13 407.04 34.25C411.41 31.68 416.99 34.77 421.99 33.92C427.63 32.97 431.29 26.99 431.58 21.28C431.87 15.56 429.6 10.07 427.36 4.8C427.29 5.46 426.66 10.69 426.59 11.35C426.8 6.84 424.65 2.54 420.91 0C421.01 0.96 421.82 8.65 421.92 9.61C421.02 4.05 415.79 0.27 410.23 1.16C410.22 1.17 410.2 1.17 410.19 1.17C410.2 1.74 410.33 6.32 410.35 6.89C403.83 6.12 397.26 5.34 390.73 5.93C384.19 6.52 377.62 8.59 372.66 12.89C365.26 19.33 362.55 29.93 363.46 39.7C364.37 49.47 368.4 58.65 372.6 67.51C373.66 69.75 375.12 72.26 377.58 72.55C379.78 72.8 381.8 70.96 382.48 68.85C383.01 66.69 382.99 64.42 382.42 62.27C381.8 58.97 381.02 55.61 381.6 52.31C382.19 49.01 384.56 45.75 387.89 45.34C391.21 44.94 394.62 48.74 393.02 51.69C393.18 51.43 393.68 50.67 393.84 50.41Z" id="dfjSJeTzE"></path><path d="M327.41 302.73L335.12 270.81L428.69 291.73L429.79 309.34L429.79 309.34L327.41 302.73Z" id="abrbDOTlQ"></path><path d="M366.65 85.74C370.51 80.39 372.65 77.42 373.08 76.82C373.08 76.82 380.25 79.26 399.48 88.83C399.57 89.39 400.02 92.17 400.83 97.18L434.2 302.41L373.55 299.79L357.04 299.44L351.63 287.32L344.97 299.18L328.84 298.84L312.43 289.32L328.6 239.85L333.83 194.67C328.98 169.12 326.29 154.93 325.75 152.09C325.75 152.09 315.57 113 354.76 91.92C356.35 91.1 360.31 89.04 366.65 85.74Z" id="bEeED4RHX"></path><path d="M490.61 233.51C490.46 232.92 490.36 232.31 490.31 231.69C487.92 231.05 475.92 227.84 454.33 222.05L468.81 209.2C487.98 215.87 498.63 219.58 500.76 220.32C506.58 220.29 511.32 224.98 511.36 230.8C511.39 235.67 508.08 239.92 503.35 241.09C497.74 242.52 492.04 239.13 490.61 233.51Z" id="c2gS7lwNwL"></path><path d="M482.25 236.05C476.33 233.8 428.98 215.83 423.06 213.58C408.62 208.46 396.53 198.27 389.04 184.91C386.57 180.51 366.83 145.28 364.36 140.88C357.08 132.75 357.76 120.26 365.89 112.98C374.02 105.7 386.51 106.38 393.79 114.51C393.81 114.53 393.82 114.55 393.84 114.56C396.69 119.08 410.93 141.65 436.56 182.28C468.82 201.19 486.74 211.7 490.33 213.8C492.49 215.22 493.53 217.83 492.94 220.34C492.68 221.48 490.54 230.54 490.27 231.67C489.98 232.89 489.33 233.99 488.4 234.82C488.05 235.14 487.66 235.42 487.24 235.65C485.71 236.48 483.89 236.63 482.25 236.05Z" id="an9bJqXFn"></path></defs><g><g><g><use xlink:href="#c2JVTNTPQu" opacity="1" fill="#e6e6e6" fill-opacity="1"></use><g><use xlink:href="#c2JVTNTPQu" opacity="1" fill-opacity="0" stroke="#000000" stroke-width="1" stroke-opacity="0"></use></g></g><g><use xlink:href="#b3SqPwA8e" opacity="1" fill="#f2f2f2" fill-opacity="1"></use><g><use xlink:href="#b3SqPwA8e" opacity="1" fill-opacity="0" stroke="#000000" stroke-width="1" stroke-opacity="0"></use></g></g><g><use xlink:href="#aqRCEXd0U" opacity="1" fill="#e6e6e6" fill-opacity="1"></use><g><use xlink:href="#aqRCEXd0U" opacity="1" fill-opacity="0" stroke="#000000" stroke-width="1" stroke-opacity="0"></use></g></g><g><use xlink:href="#f3KpQHXpez" opacity="1" fill="#f2f2f2" fill-opacity="1"></use><g><use xlink:href="#f3KpQHXpez" opacity="1" fill-opacity="0" stroke="#000000" stroke-width="1" stroke-opacity="0"></use></g></g><g><use xlink:href="#azLz8rWty" opacity="1" fill="#e6e6e6" fill-opacity="1"></use><g><use xlink:href="#azLz8rWty" opacity="1" fill-opacity="0" stroke="#000000" stroke-width="1" stroke-opacity="0"></use></g></g><g><use xlink:href="#b1g2lIXs9e" opacity="1" fill="#f2f2f2" fill-opacity="1"></use><g><use xlink:href="#b1g2lIXs9e" opacity="1" fill-opacity="0" stroke="#000000" stroke-width="1" stroke-opacity="0"></use></g></g><g><use xlink:href="#afnkeJrcI" opacity="1" fill="#f1f1f1" fill-opacity="1"></use><g><use xlink:href="#afnkeJrcI" opacity="1" fill-opacity="0" stroke="#000000" stroke-width="1" stroke-opacity="0"></use></g></g><g><use xlink:href="#dUniOVI" opacity="1" fill="#ff6161" fill-opacity="1"></use><g><use xlink:href="#dUniOVI" opacity="1" fill-opacity="0" stroke="#000000" stroke-width="1" stroke-opacity="0"></use></g></g><g><use xlink:href="#h3gyU5uxBo" opacity="1" fill="#ff6161" fill-opacity="1"></use><g><use xlink:href="#h3gyU5uxBo" opacity="1" fill-opacity="0" stroke="#000000" stroke-width="1" stroke-opacity="0"></use></g></g><g><use xlink:href="#e4l88xDi" opacity="1" fill="#ff6161" fill-opacity="1"></use><g><use xlink:href="#e4l88xDi" opacity="1" fill-opacity="0" stroke="#000000" stroke-width="1" stroke-opacity="0"></use></g></g><g><use xlink:href="#btLqhximF" opacity="1" fill="#ff6161" fill-opacity="1"></use><g><use xlink:href="#btLqhximF" opacity="1" fill-opacity="0" stroke="#000000" stroke-width="1" stroke-opacity="0"></use></g></g><g><use xlink:href="#g14rsguQCf" opacity="1" fill="#f1f1f1" fill-opacity="1"></use><g><use xlink:href="#g14rsguQCf" opacity="1" fill-opacity="0" stroke="#000000" stroke-width="1" stroke-opacity="0"></use></g></g><g><use xlink:href="#avdDnPF32" opacity="1" fill="#ff6161" fill-opacity="1"></use><g><use xlink:href="#avdDnPF32" opacity="1" fill-opacity="0" stroke="#000000" stroke-width="1" stroke-opacity="0"></use></g></g><g><use xlink:href="#a8gXA9k5g2" opacity="1" fill="#ff6161" fill-opacity="1"></use><g><use xlink:href="#a8gXA9k5g2" opacity="1" fill-opacity="0" stroke="#000000" stroke-width="1" stroke-opacity="0"></use></g></g><g><use xlink:href="#b2vgaJZz7k" opacity="1" fill="#ff6161" fill-opacity="1"></use><g><use xlink:href="#b2vgaJZz7k" opacity="1" fill-opacity="0" stroke="#000000" stroke-width="1" stroke-opacity="0"></use></g></g><g><use xlink:href="#bXeOk7Xff" opacity="1" fill="#ff6161" fill-opacity="1"></use><g><use xlink:href="#bXeOk7Xff" opacity="1" fill-opacity="0" stroke="#000000" stroke-width="1" stroke-opacity="0"></use></g></g><g><use xlink:href="#bxGe2tvRg" opacity="1" fill="#f1f1f1" fill-opacity="1"></use><g><use xlink:href="#bxGe2tvRg" opacity="1" fill-opacity="0" stroke="#000000" stroke-width="1" stroke-opacity="0"></use></g></g><g><use xlink:href="#aouQ3ibrg" opacity="1" fill="#ff6161" fill-opacity="1"></use><g><use xlink:href="#aouQ3ibrg" opacity="1" fill-opacity="0" stroke="#000000" stroke-width="1" stroke-opacity="0"></use></g></g><g><use xlink:href="#asn7ri6Mj" opacity="1" fill="#ff6161" fill-opacity="1"></use><g><use xlink:href="#asn7ri6Mj" opacity="1" fill-opacity="0" stroke="#000000" stroke-width="1" stroke-opacity="0"></use></g></g><g><use xlink:href="#a2tHM4P0xF" opacity="1" fill="#ff6161" fill-opacity="1"></use><g><use xlink:href="#a2tHM4P0xF" opacity="1" fill-opacity="0" stroke="#000000" stroke-width="1" stroke-opacity="0"></use></g></g><g><use xlink:href="#a1YXWxnz01" opacity="1" fill="#ff6161" fill-opacity="1"></use><g><use xlink:href="#a1YXWxnz01" opacity="1" fill-opacity="0" stroke="#000000" stroke-width="1" stroke-opacity="0"></use></g></g><g><use xlink:href="#aZzJvRTgu" opacity="1" fill="#3f3d56" fill-opacity="1"></use><g><use xlink:href="#aZzJvRTgu" opacity="1" fill-opacity="0" stroke="#000000" stroke-width="1" stroke-opacity="0"></use></g></g><g><use xlink:href="#a2ye5tJePN" opacity="1" fill="#ffb7b7" fill-opacity="1"></use><g><use xlink:href="#a2ye5tJePN" opacity="1" fill-opacity="0" stroke="#000000" stroke-width="1" stroke-opacity="0"></use></g></g><g><use xlink:href="#bDZPPQhiI" opacity="1" fill="#2f2e41" fill-opacity="1"></use><g><use xlink:href="#bDZPPQhiI" opacity="1" fill-opacity="0" stroke="#000000" stroke-width="1" stroke-opacity="0"></use></g></g><g><use xlink:href="#ku5iLuqAO" opacity="1" fill="#ffb7b7" fill-opacity="1"></use><g><use xlink:href="#ku5iLuqAO" opacity="1" fill-opacity="0" stroke="#000000" stroke-width="1" stroke-opacity="0"></use></g></g><g><use xlink:href="#b1mGd788b4" opacity="1" fill="#2f2e41" fill-opacity="1"></use><g><use xlink:href="#b1mGd788b4" opacity="1" fill-opacity="0" stroke="#000000" stroke-width="1" stroke-opacity="0"></use></g></g><g><use xlink:href="#b1F6cBBIvZ" opacity="1" fill="#2f2e41" fill-opacity="1"></use><g><use xlink:href="#b1F6cBBIvZ" opacity="1" fill-opacity="0" stroke="#000000" stroke-width="1" stroke-opacity="0"></use></g></g><g><use xlink:href="#a1BFqddR3v" opacity="1" fill="#2f2e41" fill-opacity="1"></use><g><use xlink:href="#a1BFqddR3v" opacity="1" fill-opacity="0" stroke="#000000" stroke-width="1" stroke-opacity="0"></use></g></g><g><use xlink:href="#aTZxGNem8" opacity="1" fill="#ffb7b7" fill-opacity="1"></use><g><use xlink:href="#aTZxGNem8" opacity="1" fill-opacity="0" stroke="#000000" stroke-width="1" stroke-opacity="0"></use></g></g><g><use xlink:href="#dfjSJeTzE" opacity="1" fill="#2f2e41" fill-opacity="1"></use><g><use xlink:href="#dfjSJeTzE" opacity="1" fill-opacity="0" stroke="#000000" stroke-width="1" stroke-opacity="0"></use></g></g><g><use xlink:href="#abrbDOTlQ" opacity="1" fill="#cbcbcb" fill-opacity="1"></use><g><use xlink:href="#abrbDOTlQ" opacity="1" fill-opacity="0" stroke="#000000" stroke-width="1" stroke-opacity="0"></use></g></g><g><use xlink:href="#bEeED4RHX" opacity="1" fill="#2f2e41" fill-opacity="1"></use><g><use xlink:href="#bEeED4RHX" opacity="1" fill-opacity="0" stroke="#000000" stroke-width="1" stroke-opacity="0"></use></g></g><g><use xlink:href="#c2gS7lwNwL" opacity="1" fill="#ffb7b7" fill-opacity="1"></use><g><use xlink:href="#c2gS7lwNwL" opacity="1" fill-opacity="0" stroke="#000000" stroke-width="1" stroke-opacity="0"></use></g></g><g><use xlink:href="#an9bJqXFn" opacity="1" fill="#2f2e41" fill-opacity="1"></use><g><use xlink:href="#an9bJqXFn" opacity="1" fill-opacity="0" stroke="#000000" stroke-width="1" stroke-opacity="0"></use></g></g></g></g></svg>